# xmcd CD database file
#
# Track frame offsets:
#	150
#	26047
#	49041
#	72568
#	100566
#	123509
#	158131
#	184205
#	211532
#	237547
#	271489
#	278576
#
# Disc length: 4014 seconds
#
# Revision: 1
# Processed by: cddbd v1.5PL3 Copyright (c) Steve Scherf et al.
# Submitted via: CDex 1.50Beta7
#
DISCID=a80fac0c
DTITLE=André Ceccarelli - Carte Blanche CD1
DYEAR=2004
DGENRE=Jazz
TTITLE0=Walk On The Wild Side
TTITLE1=Giant Steps
TTITLE2=Antipolis
TTITLE3=Le Songe d'Une Valse
TTITLE4=Nette
TTITLE5=Tones For Elvis
TTITLE6=Pour Suite
TTITLE7=Passage
TTITLE8=Pop Song
TTITLE9=Evok
TTITLE10=Couma Piero
TTITLE11=These Foolish Things
EXTD=YEAR: 2004
EXTT0=
EXTT1=
EXTT2=
EXTT3=
EXTT4=
EXTT5=
EXTT6=
EXTT7=
EXTT8=
EXTT9=
EXTT10=
EXTT11=
PLAYORDER=
